<svg width="29" height="29" viewBox="0 0 29 29" fill="none" xmlns="http://www.w3.org/2000/svg">
<path d="M14.5 28C21.9558 28 28 21.9558 28 14.5C28 7.04416 21.9558 1 14.5 1C7.04416 1 1 7.04416 1 14.5C1 21.9558 7.04416 28 14.5 28Z" stroke="#FEB307" stroke-width="2" stroke-miterlimit="10" stroke-linecap="round" stroke-linejoin="round"/>
<path d="M14.5 20.98C18.0788 20.98 20.98 18.0788 20.98 14.5C20.98 10.9212 18.0788 8.01996 14.5 8.01996C10.9212 8.01996 8.02 10.9212 8.02 14.5C8.02 18.0788 10.9212 20.98 14.5 20.98Z" stroke="#FEB307" stroke-width="2" stroke-miterlimit="10" stroke-linecap="round" stroke-linejoin="round"/>
<path d="M27.8412 15.7706L24.4741 12.3876" stroke="#FEB307" stroke-width="2" stroke-miterlimit="10" stroke-linecap="round" stroke-linejoin="round"/>
<path d="M24.8394 5.95532H20.0588" stroke="#FEB307" stroke-width="2" stroke-miterlimit="10" stroke-linecap="round" stroke-linejoin="round"/>
<path d="M15.7706 1.15875L12.3877 4.52581" stroke="#FEB307" stroke-width="2" stroke-miterlimit="10" stroke-linecap="round" stroke-linejoin="round"/>
<path d="M5.95529 4.16064V8.94123" stroke="#FEB307" stroke-width="2" stroke-miterlimit="10" stroke-linecap="round" stroke-linejoin="round"/>
<path d="M1.15885 13.2294L4.52591 16.6124" stroke="#FEB307" stroke-width="2" stroke-miterlimit="10" stroke-linecap="round" stroke-linejoin="round"/>
<path d="M4.16059 23.0447H8.94118" stroke="#FEB307" stroke-width="2" stroke-miterlimit="10" stroke-linecap="round" stroke-linejoin="round"/>
<path d="M13.2294 27.8412L16.6124 24.4742" stroke="#FEB307" stroke-width="2" stroke-miterlimit="10" stroke-linecap="round" stroke-linejoin="round"/>
<path d="M23.0447 24.8394V20.0588" stroke="#FEB307" stroke-width="2" stroke-miterlimit="10" stroke-linecap="round" stroke-linejoin="round"/>
</svg>
