<svg width="50" height="49" viewBox="0 0 50 49" fill="none" xmlns="http://www.w3.org/2000/svg">
<rect width="49.7773" height="48.6589" rx="9" fill="#3049CE"/>
<path d="M17.4467 11L11 35.1143" stroke="white" stroke-width="3" stroke-miterlimit="10" stroke-linecap="round"/>
<path d="M25.49 11.7385L25.6484 16.4302C25.6642 16.9834 25.3474 17.4341 24.9198 17.4546C24.4921 17.4751 24.1436 17.0653 24.1278 16.5122C24.1278 16.4917 24.1278 16.4507 24.1278 16.4302L24.302 11.7385C24.3179 11.3082 24.603 10.9804 24.9198 11.0009C25.2365 11.0214 25.4741 11.3492 25.49 11.7385Z" fill="white"/>
<path d="M25.8226 21.2859L25.9968 26.1415C26.0285 26.9405 25.5533 27.5961 24.9356 27.6371C24.3337 27.6781 23.811 27.0634 23.7793 26.2644C23.7793 26.2234 23.7793 26.1825 23.7793 26.1415L23.9535 21.2859C23.9852 20.6097 24.4129 20.0976 24.9356 20.1385C25.4266 20.159 25.8068 20.6712 25.8226 21.2859Z" fill="white"/>
<path d="M26.1711 30.9971L26.3453 35.6888C26.377 36.7337 25.7593 37.5942 24.9673 37.6557C24.1753 37.7171 23.4942 36.8976 23.4467 35.8732C23.4467 35.8118 23.4467 35.7503 23.4467 35.7093L23.6209 31.0176C23.6526 30.0956 24.2545 29.3991 24.9673 29.44C25.6167 29.4605 26.1394 30.1571 26.1711 30.9971Z" fill="white"/>
<path d="M32.3465 11L38.7773 35.1143" stroke="white" stroke-width="3" stroke-miterlimit="10" stroke-linecap="round"/>
</svg>
