<svg width="20" height="19" viewBox="0 0 20 19" fill="none" xmlns="http://www.w3.org/2000/svg">
<path fill-rule="evenodd" clip-rule="evenodd" d="M10.0007 13.541C9.58673 13.541 9.25073 13.205 9.25073 12.791V0.75C9.25073 0.336 9.58673 0 10.0007 0C10.4147 0 10.7507 0.336 10.7507 0.75V12.791C10.7507 13.205 10.4147 13.541 10.0007 13.541Z" fill="white"/>
<path fill-rule="evenodd" clip-rule="evenodd" d="M10.0008 13.541C9.80183 13.541 9.60983 13.462 9.46983 13.32L6.55383 10.393C6.26183 10.099 6.26283 9.624 6.55583 9.332C6.84983 9.04 7.32383 9.04 7.61583 9.334L10.0008 11.729L12.3858 9.334C12.6778 9.04 13.1518 9.04 13.4458 9.332C13.7388 9.624 13.7398 10.099 13.4478 10.393L10.5318 13.32C10.3918 13.462 10.1998 13.541 10.0008 13.541Z" fill="white"/>
<mask id="mask0_200_2850" style="mask-type:alpha" maskUnits="userSpaceOnUse" x="0" y="4" width="20" height="15">
<path fill-rule="evenodd" clip-rule="evenodd" d="M0 4.73251H19.9998V18.4765H0V4.73251Z" fill="white"/>
</mask>
<g mask="url(#mask0_200_2850)">
<path fill-rule="evenodd" clip-rule="evenodd" d="M15.575 18.4765H4.435C1.99 18.4765 0 16.4875 0 14.0415V9.15651C0 6.71651 1.985 4.73251 4.426 4.73251H5.367C5.781 4.73251 6.117 5.06851 6.117 5.48251C6.117 5.89651 5.781 6.23251 5.367 6.23251H4.426C2.812 6.23251 1.5 7.54351 1.5 9.15651V14.0415C1.5 15.6605 2.816 16.9765 4.435 16.9765H15.575C17.187 16.9765 18.5 15.6635 18.5 14.0515V9.16751C18.5 7.54851 17.183 6.23251 15.566 6.23251H14.634C14.22 6.23251 13.884 5.89651 13.884 5.48251C13.884 5.06851 14.22 4.73251 14.634 4.73251H15.566C18.011 4.73251 20 6.72251 20 9.16751V14.0515C20 16.4915 18.014 18.4765 15.575 18.4765Z" fill="white"/>
</g>
</svg>
