<svg width="30" height="30" viewBox="0 0 30 30" fill="none" xmlns="http://www.w3.org/2000/svg">
<path d="M14.8156 5.93809C16.9215 5.93809 19.0275 6.68873 20.6956 8.19002C24.1986 11.3385 24.355 16.2803 22.4158 19.2933C21.1335 18.0109 19.8616 16.739 18.5479 15.4254C18.9962 14.289 19.0692 13.1109 18.7669 11.912C18.183 9.62875 15.952 7.91895 13.6166 7.91895C13.4811 7.91895 13.3351 7.92938 13.1892 7.9398C12.866 7.96065 12.5532 8.02321 12.2404 8.06491C11.9694 8.10661 11.7609 8.22129 11.6775 8.49236C11.5836 8.77385 11.6983 8.99279 11.9068 9.19087C12.6783 9.96237 13.4394 10.7443 14.2213 11.5054C14.3985 11.6722 14.4715 11.8598 14.4298 12.0892C14.336 12.7043 14.2526 13.3194 14.1588 13.9658C13.6896 14.0492 13.2726 14.143 12.8556 14.1847C12.449 14.2264 12.2509 14.2786 12.1049 14.2786C11.8651 14.2786 11.7921 14.1535 11.2917 13.653C10.6662 13.0275 10.0406 12.402 9.41511 11.7764C9.2483 11.6096 9.08149 11.4637 8.85213 11.4637C8.8 11.4637 8.73745 11.4741 8.68532 11.4949C8.37255 11.5888 8.28915 11.8494 8.22659 12.1413C7.63233 14.7373 9.01894 17.3228 11.3334 18.3237C12.0424 18.6365 12.7721 18.7824 13.5019 18.7824C14.0858 18.7824 14.6696 18.6886 15.2639 18.4905C15.389 18.4488 15.5037 18.4071 15.5871 18.3758C16.9111 19.6999 18.2143 20.9926 19.5071 22.2958C18.1622 23.1924 16.5149 23.672 14.826 23.672C12.3864 23.672 9.84256 22.6712 7.9868 20.5026C5.05721 17.0726 5.28658 11.6826 8.53936 8.50279C10.2909 6.79299 12.5532 5.93809 14.8156 5.93809ZM14.8156 4.58276C12.1049 4.58276 9.54022 5.63575 7.59063 7.53321C3.84784 11.1926 3.55593 17.4062 6.95467 21.3784C8.93553 23.6929 11.8026 25.0273 14.826 25.0273C16.786 25.0273 18.7147 24.4539 20.2577 23.4218L21.6339 22.5044L20.4662 21.3367L18.183 19.0639L16.5358 17.4271L15.9311 16.8224L15.1388 17.0935L15.0554 17.1247L14.8364 17.1977C14.3881 17.3437 13.9398 17.4271 13.5019 17.4271C12.9494 17.4271 12.4177 17.3124 11.8755 17.0726C10.4994 16.4784 9.60277 15.1752 9.46724 13.7364C9.75915 14.0283 10.0511 14.3203 10.343 14.6122L10.5723 14.8415C10.9372 15.2169 11.3543 15.6339 12.1153 15.6339C12.2404 15.6339 12.3864 15.6235 12.6053 15.5922C12.7096 15.5818 12.8347 15.5609 13.0015 15.5401C13.356 15.5088 13.6792 15.4462 14.0024 15.3837C14.1379 15.3628 14.2734 15.3315 14.409 15.3107L15.3785 15.1439L15.5245 14.1743L15.6079 13.6113C15.6705 13.1734 15.733 12.7356 15.7956 12.3081C15.8686 11.8494 15.8164 11.1717 15.1909 10.5462C14.7426 10.1292 14.3256 9.70173 13.9085 9.27428C15.5349 9.40981 17.0571 10.6609 17.4532 12.2351C17.693 13.1735 17.6409 14.0492 17.2864 14.9145L16.9528 15.7381L17.5888 16.3637L18.819 17.5939L21.4567 20.2316L22.6452 21.4201L23.5522 20.0126C25.7833 16.5618 25.6582 10.8068 21.6026 7.15788C19.7364 5.50022 17.3281 4.58276 14.8156 4.58276Z" fill="white"/>
</svg>
