<svg width="58" height="47" viewBox="0 0 58 47" fill="none" xmlns="http://www.w3.org/2000/svg">
<path d="M36.4765 2.18213H4.94434C3.83977 2.18213 2.94434 3.07756 2.94434 4.18213V30.9767C2.94434 32.0812 3.83977 32.9767 4.94434 32.9767H36.4765C37.581 32.9767 38.4765 32.0812 38.4765 30.9767V4.18213C38.4765 3.07756 37.581 2.18213 36.4765 2.18213Z" stroke="#99A4B8" stroke-width="4" stroke-linecap="round" stroke-linejoin="round"/>
<path d="M38.4739 16.0288C38.4739 14.9242 39.3693 14.0288 40.4739 14.0288H47.1207C47.6511 14.0288 48.1598 14.2395 48.5349 14.6146L54.4698 20.5495C54.8448 20.9245 55.0555 21.4332 55.0555 21.9637V30.9793C55.0555 32.0839 54.1601 32.9793 53.0555 32.9793H40.4739C39.3693 32.9793 38.4739 32.0839 38.4739 30.9793V16.0288Z" stroke="#99A4B8" stroke-width="4" stroke-linecap="round" stroke-linejoin="round"/>
<path d="M13.6044 44.8177C16.875 44.8177 19.5264 42.1663 19.5264 38.8957C19.5264 35.625 16.875 32.9736 13.6044 32.9736C10.3338 32.9736 7.68237 35.625 7.68237 38.8957C7.68237 42.1663 10.3338 44.8177 13.6044 44.8177Z" stroke="#99A4B8" stroke-width="4" stroke-linecap="round" stroke-linejoin="round"/>
<path d="M44.3959 44.8177C47.6665 44.8177 50.3179 42.1663 50.3179 38.8957C50.3179 35.625 47.6665 32.9736 44.3959 32.9736C41.1253 32.9736 38.4739 35.625 38.4739 38.8957C38.4739 42.1663 41.1253 44.8177 44.3959 44.8177Z" stroke="#99A4B8" stroke-width="4" stroke-linecap="round" stroke-linejoin="round"/>
</svg>
