<svg width="19" height="19" viewBox="0 0 19 19" fill="none" xmlns="http://www.w3.org/2000/svg">
<path fill-rule="evenodd" clip-rule="evenodd" d="M10.0959 0.499999L14.4933 0.5C16.6929 0.5 18.483 2.2901 18.483 4.4915L18.483 14.5076C18.483 16.709 16.6929 18.5 14.4933 18.5L10.1058 18.5C7.90443 18.5 6.11343 16.709 6.11343 14.5076L6.11343 13.6688C6.11343 13.2962 6.41583 12.9938 6.78843 12.9938C7.16103 12.9938 7.46343 13.2962 7.46343 13.6688L7.46343 14.5076C7.46343 15.9656 8.64873 17.15 10.1058 17.15L14.4933 17.15C15.9486 17.15 17.133 15.9656 17.133 14.5076L17.133 4.4915C17.133 3.0344 15.9486 1.85 14.4933 1.85L10.0959 1.85C8.64513 1.85 7.46343 3.0308 7.46343 4.4816L7.46343 5.3303C7.46343 5.7029 7.16103 6.0053 6.78843 6.0053C6.41583 6.0053 6.11343 5.7029 6.11343 5.3303L6.11343 4.4816C6.11343 2.2856 7.90083 0.499999 10.0959 0.499999Z" fill="#6184FF"/>
<mask id="mask0_145_1203" style="mask-type:alpha" maskUnits="userSpaceOnUse" x="0" y="8" width="13" height="3">
<path fill-rule="evenodd" clip-rule="evenodd" d="M12.1868 10.175L1.81198e-05 10.175L1.82378e-05 8.82499L12.1868 8.82499L12.1868 10.175Z" fill="white"/>
</mask>
<g mask="url(#mask0_145_1203)">
<path fill-rule="evenodd" clip-rule="evenodd" d="M0.674929 8.82499L11.5118 8.82499C11.8844 8.82499 12.1868 9.12739 12.1868 9.49999C12.1868 9.87259 11.8844 10.175 11.5118 10.175L0.674929 10.175C0.302329 10.175 -7.14991e-05 9.87259 -7.14666e-05 9.49999C-7.1434e-05 9.12739 0.302329 8.82499 0.674929 8.82499Z" fill="#6184FF"/>
</g>
<mask id="mask1_145_1203" style="mask-type:alpha" maskUnits="userSpaceOnUse" x="0" y="6" width="4" height="7">
<path fill-rule="evenodd" clip-rule="evenodd" d="M3.98462 12.7983L1.90735e-06 12.7983L2.48414e-06 6.20063L3.98462 6.20063L3.98462 12.7983Z" fill="white"/>
</mask>
<g mask="url(#mask1_145_1203)">
<path fill-rule="evenodd" clip-rule="evenodd" d="M3.30984 6.20063C3.48264 6.20063 3.65634 6.26633 3.78774 6.39953C4.05054 6.66413 4.04964 7.09073 3.78594 7.35353L1.63134 9.50003L3.78594 11.6456C4.04964 11.9084 4.05144 12.335 3.78774 12.5996C3.52494 12.8642 3.09834 12.8642 2.83374 12.6014L0.198542 9.97793C0.0707419 9.85193 -0.000357832 9.67913 -0.000357816 9.50003C-0.000357801 9.32093 0.070742 9.14813 0.198542 9.02213L2.83374 6.39773C2.96514 6.26633 3.13794 6.20063 3.30984 6.20063Z" fill="#6184FF"/>
</g>
</svg>
