<svg width="30" height="30" viewBox="0 0 30 30" fill="none" xmlns="http://www.w3.org/2000/svg">
<path d="M15.5 24C20.7467 24 25 19.7467 25 14.5C25 9.25329 20.7467 5 15.5 5C10.2533 5 6 9.25329 6 14.5C6 19.7467 10.2533 24 15.5 24Z" stroke="white" stroke-width="1.5" stroke-miterlimit="10" stroke-linecap="round" stroke-linejoin="round"/>
<path d="M15.5 19.0599C18.0184 19.0599 20.06 17.0184 20.06 14.4999C20.06 11.9815 18.0184 9.93994 15.5 9.93994C12.9816 9.93994 10.94 11.9815 10.94 14.4999C10.94 17.0184 12.9816 19.0599 15.5 19.0599Z" stroke="white" stroke-width="1.5" stroke-miterlimit="10" stroke-linecap="round" stroke-linejoin="round"/>
<path d="M24.8882 15.3941L22.5188 13.0135" stroke="white" stroke-miterlimit="10" stroke-linecap="round" stroke-linejoin="round"/>
<path d="M22.7759 8.48706H19.4118" stroke="white" stroke-miterlimit="10" stroke-linecap="round" stroke-linejoin="round"/>
<path d="M16.3941 5.11169L14.0135 7.48111" stroke="white" stroke-miterlimit="10" stroke-linecap="round" stroke-linejoin="round"/>
<path d="M9.48708 7.22412V10.5882" stroke="white" stroke-miterlimit="10" stroke-linecap="round" stroke-linejoin="round"/>
<path d="M6.11179 13.606L8.4812 15.9865" stroke="white" stroke-miterlimit="10" stroke-linecap="round" stroke-linejoin="round"/>
<path d="M8.22412 20.5129H11.5882" stroke="white" stroke-miterlimit="10" stroke-linecap="round" stroke-linejoin="round"/>
<path d="M14.6059 23.8883L16.9865 21.5189" stroke="white" stroke-miterlimit="10" stroke-linecap="round" stroke-linejoin="round"/>
<path d="M21.5129 21.7759V18.4117" stroke="white" stroke-miterlimit="10" stroke-linecap="round" stroke-linejoin="round"/>
</svg>
