<svg width="23" height="23" viewBox="0 0 23 23" fill="none" xmlns="http://www.w3.org/2000/svg">
<path d="M6.96022 0C9.98375 0 13.0075 0 16.0311 0C16.0571 0.0124618 16.0817 0.0315523 16.1093 0.03659C17.8693 0.351317 18.9936 1.6903 18.995 3.47579C18.9955 4.14952 18.995 4.82325 18.995 5.49699C18.995 5.59138 18.995 5.68577 18.995 5.79607C19.2542 5.79607 19.4851 5.79262 19.7157 5.7966C21.4735 5.82709 22.9669 7.29891 22.9857 9.05788C23.0053 10.9216 23.0032 12.7858 22.9865 14.6495C22.9717 16.2674 21.7081 17.6735 20.1045 17.8806C19.7446 17.927 19.378 17.923 18.9947 17.9432C18.9947 18.0272 18.9947 18.1078 18.9947 18.1881C18.9947 19.0939 18.9971 19.9996 18.9942 20.9054C18.9902 22.1269 18.1203 22.9976 16.8984 22.9984C13.2988 23.0003 9.6996 23.0003 6.1001 22.9984C4.86519 22.9979 3.99897 22.1277 3.99659 20.8902C3.99473 19.9845 3.99632 19.0788 3.99632 18.173C3.99632 18.094 3.99632 18.0147 3.99632 17.9227C3.76466 17.9227 3.56374 17.9241 3.36256 17.9225C1.82681 17.9105 0.505224 16.8897 0.110286 15.41C0.0702617 15.2602 0.0365991 15.1088 -0.000244141 14.9582C-0.000244141 12.8919 -0.000244141 10.8256 -0.000244141 8.75906C0.0140691 8.71823 0.0347437 8.67846 0.0416352 8.6363C0.280454 7.16395 1.43108 6.03019 2.90931 5.83345C3.26105 5.78679 3.6202 5.79421 3.99632 5.77565C3.99632 5.6916 3.99632 5.611 3.99632 5.53066C3.99632 4.79806 3.99182 4.06547 3.99765 3.33314C4.00984 1.81412 5.05921 0.478852 6.53029 0.102876C6.67316 0.0668165 6.81682 0.0344688 6.96022 0ZM3.98651 14.3284C3.83384 14.3284 3.69972 14.3345 3.5664 14.3274C3.21731 14.3083 2.94245 14.0378 2.92018 13.6982C2.89871 13.3691 3.12799 13.0655 3.46037 12.9974C3.5542 12.9781 3.65387 12.9826 3.75088 12.9826C8.9137 12.982 14.0765 12.982 19.2394 12.982C19.2918 12.982 19.3441 12.9807 19.3965 12.9826C19.7803 12.9966 20.0701 13.2843 20.0719 13.6523C20.0738 14.0201 19.7854 14.3139 19.4034 14.3284C19.2717 14.3335 19.1397 14.3292 18.9952 14.3292C18.9952 14.7248 18.9952 15.0905 18.9952 15.4561C18.9952 15.8268 18.9952 16.1972 18.9952 16.5753C19.2243 16.5753 19.4185 16.5774 19.6128 16.575C20.7518 16.561 21.6368 15.6889 21.6421 14.5525C21.6506 12.7561 21.6506 10.9598 21.6421 9.16341C21.6368 8.03628 20.7563 7.14645 19.6335 7.14513C14.2088 7.13956 8.78409 7.13956 3.35938 7.14513C2.23659 7.14619 1.355 8.03707 1.34997 9.16261C1.34202 10.959 1.3391 12.7553 1.35659 14.5517C1.35951 14.8415 1.43346 15.1506 1.55221 15.4161C1.94821 16.2995 2.89792 16.7288 3.98704 16.5501C3.98651 15.8209 3.98651 15.0905 3.98651 14.3284ZM5.34362 14.3372C5.34362 14.4345 5.34362 14.5082 5.34362 14.5822C5.34362 16.6702 5.34335 18.7579 5.34362 20.846C5.34362 21.3991 5.59755 21.6515 6.15391 21.6515C9.71498 21.6517 13.2761 21.6517 16.8369 21.6515C17.3932 21.6515 17.6474 21.3991 17.6474 20.846C17.6477 18.7579 17.6474 16.6702 17.6474 14.5822C17.6474 14.5029 17.6474 14.4236 17.6474 14.3372C13.5369 14.3372 9.45442 14.3372 5.34362 14.3372ZM17.6477 5.78705C17.6477 4.98658 17.6503 4.20918 17.6471 3.43204C17.6421 2.2243 16.7719 1.34959 15.5667 1.34826C12.8517 1.34535 10.1367 1.34535 7.42168 1.34826C6.21778 1.34959 5.34839 2.22669 5.34415 3.43495C5.3415 4.15323 5.34335 4.87151 5.34415 5.58979C5.34415 5.65422 5.35237 5.71838 5.35687 5.78679C9.45602 5.78705 13.5377 5.78705 17.6477 5.78705Z" fill="white"/>
<path d="M4.67019 10.0172C4.32667 10.0172 3.98315 10.0196 3.6399 10.0167C3.22349 10.0129 2.92318 9.73269 2.91947 9.34929C2.91576 8.95793 3.22058 8.67184 3.65024 8.67025C4.32959 8.66786 5.0092 8.66786 5.68855 8.67025C6.1198 8.67157 6.42356 8.95607 6.42011 9.34849C6.41667 9.74064 6.11424 10.0145 5.67795 10.0169C5.34238 10.0188 5.00628 10.0172 4.67019 10.0172Z" fill="white"/>
<path d="M11.4954 15.857C12.0706 15.857 12.6461 15.8557 13.2212 15.8575C13.6581 15.8589 13.9613 16.133 13.9647 16.5249C13.9682 16.9178 13.665 17.2031 13.2329 17.2039C12.0748 17.206 10.9168 17.206 9.75874 17.2039C9.32775 17.2031 9.02346 16.9173 9.02664 16.5252C9.02955 16.1343 9.33411 15.8586 9.7696 15.8573C10.3448 15.8557 10.92 15.857 11.4954 15.857Z" fill="white"/>
<path d="M11.4957 18.7317C12.0709 18.7317 12.6463 18.7304 13.2215 18.7322C13.658 18.7335 13.9613 19.008 13.9644 19.3998C13.9676 19.7928 13.6644 20.0778 13.2324 20.0786C12.0743 20.0807 10.9163 20.0807 9.75822 20.0786C9.3275 20.0778 9.02321 19.7917 9.02639 19.3996C9.02957 19.0088 9.33386 18.7335 9.76962 18.7322C10.3451 18.7304 10.9202 18.7317 11.4957 18.7317Z" fill="white"/>
</svg>
