<svg width="30" height="30" viewBox="0 0 30 30" fill="none" xmlns="http://www.w3.org/2000/svg">
<path fill-rule="evenodd" clip-rule="evenodd" d="M10.2023 19.44C10.4313 19.44 10.6603 19.469 10.8843 19.529C11.5603 19.711 12.1473 20.163 12.4953 20.77C12.7213 21.151 12.8463 21.596 12.8503 22.05C12.8503 22.7 13.3723 23.221 14.0143 23.221H15.2673C15.9063 23.221 16.4283 22.703 16.4313 22.064C16.4273 21.358 16.7033 20.687 17.2083 20.182C17.7063 19.684 18.4023 19.385 19.0983 19.405C19.5543 19.416 19.9933 19.539 20.3803 19.759C20.9373 20.078 21.6483 19.888 21.9703 19.338L22.6343 18.231C22.7823 17.976 22.8253 17.656 22.7463 17.361C22.6683 17.066 22.4723 16.81 22.2083 16.659C21.5903 16.303 21.1493 15.729 20.9663 15.041C20.7853 14.366 20.8843 13.629 21.2373 13.022C21.4673 12.622 21.8043 12.285 22.2083 12.053C22.7503 11.736 22.9403 11.027 22.6253 10.475C22.6123 10.453 22.6003 10.43 22.5903 10.406L22.0043 9.39C21.6853 8.835 20.9753 8.644 20.4183 8.961C19.8163 9.317 19.1003 9.419 18.4123 9.238C17.7253 9.06 17.1493 8.625 16.7903 8.011C16.5603 7.627 16.4353 7.18 16.4313 6.725C16.4403 6.383 16.3203 6.076 16.1023 5.851C15.8853 5.627 15.5803 5.5 15.2673 5.5H14.0143C13.7043 5.5 13.4143 5.621 13.1953 5.839C12.9773 6.058 12.8583 6.349 12.8603 6.659C12.8393 8.121 11.6443 9.298 10.1973 9.298C9.73332 9.293 9.28632 9.168 8.89832 8.936C8.35332 8.626 7.64132 8.817 7.32232 9.372L6.64532 10.485C6.33532 11.023 6.52532 11.734 7.07732 12.055C7.89632 12.529 8.40732 13.413 8.40732 14.361C8.40732 15.309 7.89632 16.192 7.07532 16.667C6.52632 16.985 6.33632 17.692 6.65432 18.242L7.28532 19.33C7.44132 19.611 7.69632 19.814 7.99132 19.897C8.28532 19.979 8.60932 19.944 8.87932 19.794C9.27632 19.561 9.73832 19.44 10.2023 19.44ZM15.2673 24.721H14.0143C12.5453 24.721 11.3503 23.527 11.3503 22.058C11.3483 21.877 11.2963 21.689 11.1993 21.526C11.0423 21.252 10.7883 21.056 10.4953 20.978C10.2043 20.9 9.88532 20.943 9.62332 21.095C8.99532 21.445 8.25632 21.53 7.58032 21.34C6.90532 21.149 6.32232 20.685 5.98032 20.07L5.35532 18.993C4.62432 17.725 5.05932 16.1 6.32532 15.368C6.68432 15.161 6.90732 14.775 6.90732 14.361C6.90732 13.947 6.68432 13.56 6.32532 13.353C5.05832 12.617 4.62432 10.988 5.35432 9.72L6.03232 8.607C6.75332 7.353 8.38332 6.911 9.65432 7.641C9.82732 7.744 10.0153 7.796 10.2063 7.798C10.8293 7.798 11.3503 7.284 11.3603 6.652C11.3563 5.955 11.6313 5.286 12.1323 4.781C12.6353 4.277 13.3033 4 14.0143 4H15.2673C15.9833 4 16.6793 4.294 17.1783 4.805C17.6763 5.319 17.9513 6.024 17.9303 6.739C17.9323 6.9 17.9853 7.086 18.0813 7.249C18.2403 7.519 18.4913 7.709 18.7893 7.787C19.0873 7.861 19.3993 7.821 19.6643 7.664C20.9443 6.933 22.5733 7.371 23.3043 8.641L23.9273 9.72C23.9433 9.749 23.9573 9.777 23.9693 9.806C24.6313 11.057 24.1893 12.632 22.9593 13.351C22.7803 13.454 22.6353 13.598 22.5353 13.772C22.3803 14.041 22.3373 14.361 22.4153 14.655C22.4953 14.955 22.6863 15.204 22.9553 15.358C23.5623 15.707 24.0153 16.295 24.1963 16.974C24.3773 17.652 24.2783 18.388 23.9253 18.995L23.2613 20.101C22.5303 21.357 20.9013 21.792 19.6343 21.06C19.4653 20.963 19.2703 20.91 19.0763 20.905H19.0703C18.7813 20.905 18.4843 21.028 18.2683 21.243C18.0493 21.462 17.9293 21.754 17.9313 22.064C17.9243 23.533 16.7293 24.721 15.2673 24.721Z" fill="white"/>
<path fill-rule="evenodd" clip-rule="evenodd" d="M14.6452 12.4741C13.6052 12.4741 12.7592 13.3211 12.7592 14.3611C12.7592 15.4011 13.6052 16.2461 14.6452 16.2461C15.6852 16.2461 16.5312 15.4011 16.5312 14.3611C16.5312 13.3211 15.6852 12.4741 14.6452 12.4741ZM14.6452 17.7461C12.7782 17.7461 11.2592 16.2281 11.2592 14.3611C11.2592 12.4941 12.7782 10.9741 14.6452 10.9741C16.5122 10.9741 18.0312 12.4941 18.0312 14.3611C18.0312 16.2281 16.5122 17.7461 14.6452 17.7461Z" fill="white"/>
</svg>
