<svg width="20" height="22" viewBox="0 0 20 22" fill="none" xmlns="http://www.w3.org/2000/svg">
<path fill-rule="evenodd" clip-rule="evenodd" d="M5.20232 15.94C5.43132 15.94 5.66032 15.969 5.88432 16.029C6.56032 16.211 7.14732 16.663 7.49532 17.27C7.72132 17.651 7.84632 18.096 7.85032 18.55C7.85032 19.2 8.37232 19.721 9.01432 19.721H10.2673C10.9063 19.721 11.4283 19.203 11.4313 18.564C11.4273 17.858 11.7033 17.187 12.2083 16.682C12.7063 16.184 13.4023 15.885 14.0983 15.905C14.5543 15.916 14.9933 16.039 15.3803 16.259C15.9373 16.578 16.6483 16.388 16.9703 15.838L17.6343 14.731C17.7823 14.476 17.8253 14.156 17.7463 13.861C17.6683 13.566 17.4723 13.31 17.2083 13.159C16.5903 12.803 16.1493 12.229 15.9663 11.541C15.7853 10.866 15.8843 10.129 16.2373 9.522C16.4673 9.122 16.8043 8.785 17.2083 8.553C17.7503 8.236 17.9403 7.527 17.6253 6.975C17.6123 6.953 17.6003 6.93 17.5903 6.906L17.0043 5.89C16.6853 5.335 15.9753 5.144 15.4183 5.461C14.8163 5.817 14.1003 5.919 13.4123 5.738C12.7253 5.56 12.1493 5.125 11.7903 4.511C11.5603 4.127 11.4353 3.68 11.4313 3.225C11.4403 2.883 11.3203 2.576 11.1023 2.351C10.8853 2.127 10.5803 2 10.2673 2H9.01432C8.70432 2 8.41432 2.121 8.19532 2.339C7.97732 2.558 7.85832 2.849 7.86032 3.159C7.83932 4.621 6.64432 5.798 5.19732 5.798C4.73332 5.793 4.28632 5.668 3.89832 5.436C3.35332 5.126 2.64132 5.317 2.32232 5.872L1.64532 6.985C1.33532 7.523 1.52532 8.234 2.07732 8.555C2.89632 9.029 3.40732 9.913 3.40732 10.861C3.40732 11.809 2.89632 12.692 2.07532 13.167C1.52632 13.485 1.33632 14.192 1.65432 14.742L2.28532 15.83C2.44132 16.111 2.69632 16.314 2.99132 16.397C3.28532 16.479 3.60932 16.444 3.87932 16.294C4.27632 16.061 4.73832 15.94 5.20232 15.94ZM10.2673 21.221H9.01432C7.54532 21.221 6.35032 20.027 6.35032 18.558C6.34832 18.377 6.29632 18.189 6.19932 18.026C6.04232 17.752 5.78832 17.556 5.49532 17.478C5.20432 17.4 4.88532 17.443 4.62332 17.595C3.99532 17.945 3.25632 18.03 2.58032 17.84C1.90532 17.649 1.32232 17.185 0.98032 16.57L0.35532 15.493C-0.37568 14.225 0.0593197 12.6 1.32532 11.868C1.68432 11.661 1.90732 11.275 1.90732 10.861C1.90732 10.447 1.68432 10.06 1.32532 9.853C0.0583198 9.117 -0.37568 7.488 0.35432 6.22L1.03232 5.107C1.75332 3.853 3.38332 3.411 4.65432 4.141C4.82732 4.244 5.01532 4.296 5.20632 4.298C5.82932 4.298 6.35032 3.784 6.36032 3.152C6.35632 2.455 6.63132 1.786 7.13232 1.281C7.63532 0.777 8.30332 0.5 9.01432 0.5H10.2673C10.9833 0.5 11.6793 0.794 12.1783 1.305C12.6763 1.819 12.9513 2.524 12.9303 3.239C12.9323 3.4 12.9853 3.586 13.0813 3.749C13.2403 4.019 13.4913 4.209 13.7893 4.287C14.0873 4.361 14.3993 4.321 14.6643 4.164C15.9443 3.433 17.5733 3.871 18.3043 5.141L18.9273 6.22C18.9433 6.249 18.9573 6.277 18.9693 6.306C19.6313 7.557 19.1893 9.132 17.9593 9.851C17.7803 9.954 17.6353 10.098 17.5353 10.272C17.3803 10.541 17.3373 10.861 17.4153 11.155C17.4953 11.455 17.6863 11.704 17.9553 11.858C18.5623 12.207 19.0153 12.795 19.1963 13.474C19.3773 14.152 19.2783 14.888 18.9253 15.495L18.2613 16.601C17.5303 17.857 15.9013 18.292 14.6343 17.56C14.4653 17.463 14.2703 17.41 14.0763 17.405H14.0703C13.7813 17.405 13.4843 17.528 13.2683 17.743C13.0493 17.962 12.9293 18.254 12.9313 18.564C12.9243 20.033 11.7293 21.221 10.2673 21.221Z" fill="#6184FF"/>
<path fill-rule="evenodd" clip-rule="evenodd" d="M9.64522 8.97412C8.60522 8.97412 7.75922 9.82112 7.75922 10.8611C7.75922 11.9011 8.60522 12.7461 9.64522 12.7461C10.6852 12.7461 11.5312 11.9011 11.5312 10.8611C11.5312 9.82112 10.6852 8.97412 9.64522 8.97412ZM9.64522 14.2461C7.77822 14.2461 6.25922 12.7281 6.25922 10.8611C6.25922 8.99412 7.77822 7.47412 9.64522 7.47412C11.5122 7.47412 13.0312 8.99412 13.0312 10.8611C13.0312 12.7281 11.5122 14.2461 9.64522 14.2461Z" fill="#6184FF"/>
</svg>
