<svg width="30" height="30" viewBox="0 0 30 30" fill="none" xmlns="http://www.w3.org/2000/svg">
<path d="M17.5703 6H8C6.89543 6 6 6.89543 6 8V15.761C6 16.8655 6.89543 17.761 8 17.761H17.5703C18.6749 17.761 19.5703 16.8655 19.5703 15.761V8C19.5703 6.89543 18.6749 6 17.5703 6Z" stroke="white" stroke-width="1.5" stroke-linecap="round" stroke-linejoin="round"/>
<path d="M19.5693 12.5244C19.5693 11.4198 20.4648 10.5244 21.5693 10.5244H22.3597C22.8901 10.5244 23.3988 10.7351 23.7739 11.1102L25.3164 12.6527C25.6914 13.0278 25.9022 13.5365 25.9022 14.0669V15.7619C25.9022 16.8665 25.0067 17.7619 23.9022 17.7619H21.5693C20.4648 17.7619 19.5693 16.8665 19.5693 15.7619V12.5244Z" stroke="white" stroke-width="1.5" stroke-linecap="round" stroke-linejoin="round"/>
<path d="M10.0713 22.2832C11.3204 22.2832 12.333 21.2706 12.333 20.0215C12.333 18.7724 11.3204 17.7598 10.0713 17.7598C8.82218 17.7598 7.80957 18.7724 7.80957 20.0215C7.80957 21.2706 8.82218 22.2832 10.0713 22.2832Z" stroke="white" stroke-width="1.5" stroke-linecap="round" stroke-linejoin="round"/>
<path d="M21.8311 22.2832C23.0802 22.2832 24.0928 21.2706 24.0928 20.0215C24.0928 18.7724 23.0802 17.7598 21.8311 17.7598C20.5819 17.7598 19.5693 18.7724 19.5693 20.0215C19.5693 21.2706 20.5819 22.2832 21.8311 22.2832Z" stroke="white" stroke-width="1.5" stroke-linecap="round" stroke-linejoin="round"/>
</svg>
