<svg width="30" height="30" viewBox="0 0 30 30" fill="none" xmlns="http://www.w3.org/2000/svg">
<g clip-path="url(#clip0_2_38)">
<path d="M10.98 8.17712L6.91 23.4013" stroke="white" stroke-width="2" stroke-miterlimit="10" stroke-linecap="round"/>
<path d="M19.96 8.17712L24.02 23.4013" stroke="white" stroke-width="2" stroke-miterlimit="10" stroke-linecap="round"/>
<path d="M15.9 8.28056L16 11.2426C16.01 11.5918 15.81 11.8764 15.54 11.8893C15.27 11.9023 15.05 11.6436 15.04 11.2943C15.04 11.2814 15.04 11.2555 15.04 11.2426L15.15 8.28056C15.16 8.00893 15.34 7.80197 15.54 7.81491C15.74 7.82784 15.89 8.0348 15.9 8.28056Z" fill="white"/>
<path d="M16.11 14.3081L16.22 17.3736C16.24 17.878 15.94 18.292 15.55 18.3178C15.17 18.3437 14.84 17.9557 14.82 17.4512C14.82 17.4253 14.82 17.3995 14.82 17.3736L14.93 14.3081C14.95 13.8812 15.22 13.5579 15.55 13.5837C15.86 13.5967 16.1 13.92 16.11 14.3081Z" fill="white"/>
<path d="M16.33 20.4392L16.44 23.4012C16.46 24.0609 16.07 24.6042 15.57 24.643C15.07 24.6818 14.64 24.1644 14.61 23.5177C14.61 23.4789 14.61 23.4401 14.61 23.4142L14.72 20.4521C14.74 19.8701 15.12 19.4303 15.57 19.4562C15.98 19.4691 16.31 19.9089 16.33 20.4392Z" fill="white"/>
</g>
<defs>
<clipPath id="clip0_2_38">
<rect width="18.94" height="17.63" fill="white" transform="translate(6 7)"/>
</clipPath>
</defs>
</svg>
